<svg width="47" height="47" viewBox="0 0 47 47" fill="none" xmlns="http://www.w3.org/2000/svg">
<g clip-path="url(#clip0_156_17)">
<path opacity="0.969" fill-rule="evenodd" clip-rule="evenodd" d="M3.25879 -0.0458984C5.27832 -0.0458984 7.29785 -0.0458984 9.31738 -0.0458984C11.315 0.498428 12.5542 1.78359 13.0352 3.80957C13.1255 4.60443 13.2019 5.40001 13.2646 6.19629C22.4138 6.18099 31.5629 6.19629 40.7119 6.24219C42.7528 6.59591 44.0227 7.77397 44.5215 9.77637C44.5827 13.2646 44.5827 16.7529 44.5215 20.2412C44.0017 22.2909 42.7319 23.6219 40.7119 24.2344C32.3278 25.7949 23.9436 27.3555 15.5596 28.916C15.4464 29.0719 15.3852 29.2555 15.376 29.4668C15.4227 30.3176 15.5297 31.1591 15.6973 31.9912C15.9698 32.4477 16.3523 32.769 16.8447 32.9551C24.9228 32.9856 33.001 33.0163 41.0791 33.0469C42.1696 33.3762 42.5521 34.0952 42.2266 35.2041C42.0226 35.561 41.732 35.8211 41.3545 35.9844C33.0622 36.0456 24.7698 36.0456 16.4775 35.9844C15.0337 35.6726 13.9168 34.8924 13.1269 33.6436C12.8521 33.1556 12.6685 32.6354 12.5762 32.083C11.7304 22.7797 10.8736 13.4775 10.0059 4.17676C9.80693 3.61067 9.42451 3.22819 8.8584 3.0293C6.99578 2.9124 5.12924 2.8512 3.25879 2.8457C2.43425 2.43509 2.14356 1.77722 2.38672 0.87207C2.57236 0.457152 2.86305 0.151162 3.25879 -0.0458984ZM13.54 9.22559C22.6026 9.18033 31.6598 9.22623 40.7119 9.36328C41.0688 9.56725 41.3289 9.85788 41.4922 10.2354C41.5821 13.515 41.5516 16.7891 41.4004 20.0576C41.0863 20.7086 40.5815 21.1217 39.8857 21.2969C31.6208 22.8325 23.3591 24.3777 15.1006 25.9326C14.5583 20.3656 14.0381 14.7966 13.54 9.22559Z" fill="#121212"/>
<path opacity="0.963" fill-rule="evenodd" clip-rule="evenodd" d="M20.2412 46.9541C19.6292 46.9541 19.0173 46.9541 18.4053 46.9541C15.6227 46.1419 14.3224 44.2754 14.5039 41.3545C14.8563 39.5342 15.8813 38.2642 17.5791 37.5449C20.0296 36.8114 22.0032 37.4693 23.5 39.5186C24.4938 41.4441 24.402 43.3106 23.2246 45.1182C22.4218 46.0621 21.4272 46.6741 20.2412 46.9541ZM18.9561 40.2529C20.5604 40.2507 21.2795 41.0462 21.1133 42.6396C20.4796 43.9431 19.5158 44.2644 18.2217 43.6035C17.2216 42.5664 17.2521 41.5566 18.3135 40.5742C18.5361 40.4629 18.7504 40.3558 18.9561 40.2529Z" fill="#121212"/>
<path opacity="0.964" fill-rule="evenodd" clip-rule="evenodd" d="M36.9644 47C36.3075 47 35.6505 47 34.9936 47C32.2372 46.1925 30.9077 44.3373 31.005 41.434C31.5384 38.7123 33.1808 37.2342 35.9321 37C39.0051 37.2745 40.6944 38.957 41 42.0472C40.7591 44.6301 39.4139 46.281 36.9644 47ZM35.5567 40.1132C37.2558 40.1378 37.9909 40.9869 37.7622 42.6604C37.2682 43.7027 36.4705 44.0958 35.369 43.8396C34.1263 43.1988 33.7979 42.2396 34.3836 40.9623C34.6932 40.5489 35.0843 40.2658 35.5567 40.1132Z" fill="#121212"/>
</g>
<defs>
<clipPath id="clip0_156_17">
<rect width="47" height="47" fill="white"/>
</clipPath>
</defs>
</svg>
