<svg width="55" height="47" viewBox="0 0 55 47" fill="none" xmlns="http://www.w3.org/2000/svg">
<path opacity="0.964" fill-rule="evenodd" clip-rule="evenodd" d="M13.3057 0.622081C17.3832 0.240225 21.057 1.26074 24.3272 3.6836C25.383 4.64665 26.4221 5.63005 27.4443 6.6338C28.5817 5.47761 29.7692 4.38289 31.0068 3.34962C35.492 0.409344 40.2791 -0.184414 45.3682 1.56837C49.5227 3.27367 52.3987 6.22389 53.9961 10.419C55.7703 15.982 54.8426 21.0289 51.2129 25.5596C44.5518 32.2207 37.8906 38.8819 31.2295 45.543C29.1748 46.9877 26.9853 47.2103 24.6611 46.2109C24.308 46.0159 23.974 45.7932 23.6592 45.543C16.9981 38.8819 10.3369 32.2207 3.67579 25.5596C0.0460779 21.0289 -0.881657 15.982 0.892587 10.419C3.1753 4.79733 7.31299 1.5317 13.3057 0.622081ZM14.419 4.07325C17.5874 4.00967 20.3706 4.99307 22.7686 7.02345C23.9932 8.24806 25.2178 9.47267 26.4424 10.6973C27.1104 11.0683 27.7783 11.0683 28.4463 10.6973C29.6709 9.47267 30.8955 8.24806 32.1201 7.02345C35.7215 4.08521 39.7293 3.38013 44.1436 4.90821C49.3654 7.38994 51.7219 11.5277 51.2129 17.3213C50.8615 19.6033 49.9338 21.6072 48.4297 23.333C41.9541 29.8086 35.4786 36.2841 29.0029 42.7598C27.9639 43.4277 26.9248 43.4277 25.8857 42.7598C19.4101 36.2841 12.9346 29.8086 6.45899 23.333C3.76454 20.0874 2.94814 16.4135 4.00977 12.3115C5.74649 7.37101 9.21621 4.62489 14.419 4.07325Z" fill="#121212"/>
</svg>
