<svg width="52" height="52" viewBox="0 0 52 52" fill="none" xmlns="http://www.w3.org/2000/svg">
<path opacity="0.964" fill-rule="evenodd" clip-rule="evenodd" d="M25.0352 2.58983C30.132 2.45482 34.0421 4.51993 36.7656 8.78514C38.9629 12.9316 38.9968 17.0957 36.8672 21.2773C33.9697 25.883 29.7887 27.965 24.3242 27.5234C19.2225 26.6576 15.7863 23.7969 14.0156 18.9414C12.6153 13.6572 13.9187 9.17151 17.9258 5.48436C20.0125 3.81442 22.3823 2.84958 25.0352 2.58983ZM25.2383 5.94139C29.418 5.88902 32.448 7.71714 34.3281 11.4258C35.911 15.7819 34.9462 19.4551 31.4336 22.4453C27.7774 24.9505 24.1211 24.9505 20.4649 22.4453C17.1255 19.6352 16.0929 16.1313 17.3672 11.9336C18.8701 8.4487 21.4938 6.45131 25.2383 5.94139Z" fill="#121212"/>
<path opacity="0.962" fill-rule="evenodd" clip-rule="evenodd" d="M23.7148 30.8242C30.241 30.2873 35.9962 32.0985 40.9805 36.2578C44.2122 39.2347 45.9727 42.9248 46.2617 47.3281C46.2516 48.4553 45.693 49.1154 44.5859 49.3086C43.8148 49.2621 43.273 48.8897 42.9609 48.1914C42.8046 43.6291 40.858 40.0576 37.1211 37.4766C31.2908 33.8449 25.1293 33.1678 18.6367 35.4453C14.637 36.9278 11.7086 39.5854 9.85156 43.418C9.28493 44.9215 8.98025 46.4787 8.9375 48.0898C8.5844 48.9862 7.92424 49.3755 6.95703 49.2578C6.03631 48.946 5.59619 48.3028 5.63672 47.3281C5.82246 43.5222 7.19355 40.2214 9.75 37.4258C13.6131 33.5732 18.268 31.3726 23.7148 30.8242Z" fill="#121212"/>
<path d="M8 48L26.2466 48H44" stroke="#121212" stroke-width="3" stroke-linecap="round" stroke-linejoin="round"/>
</svg>
